<?xml version="1.0" encoding="UTF-8"?>
<svg version="1.1" xmlns="http://www.w3.org/2000/svg" width="28" height="28">
<path d="M0 0 C0.66 0 1.32 0 2 0 C3.6299605 2.89306764 5.25307168 5.78992283 6.875 8.6875 C7.33519531 9.50412109 7.79539062 10.32074219 8.26953125 11.16210938 C10.43297538 15.03436082 12.51333589 18.80487311 14 23 C13.01 23.99 12.02 24.98 11 26 C9.35 23.36 7.7 20.72 6 18 C5.67 18.33 5.34 18.66 5 19 C2.98405418 19.23427778 0.961526 19.41336124 -1.0625 19.5625 C-2.71958984 19.68818359 -2.71958984 19.68818359 -4.41015625 19.81640625 C-5.26480469 19.87699219 -6.11945312 19.93757813 -7 20 C-7.66 21.98 -8.32 23.96 -9 26 C-9.66 26 -10.32 26 -11 26 C-12.00106514 22.41284993 -12.25385634 20.58386958 -10.75 17.125 C-6.49824349 13.83955179 -2.18650038 14.59759911 3 15 C3 14.01 3 13.02 3 12 C0.03 12 -2.94 12 -6 12 C-5.1875 9.5625 -5.1875 9.5625 -4 7 C-3.01 6.67 -2.02 6.34 -1 6 C-1.020625 5.195625 -1.04125 4.39125 -1.0625 3.5625 C-1 1 -1 1 0 0 Z " fill="#ED4730" transform="translate(13,0)"/>
<path d="M0 0 C3.63 0 7.26 0 11 0 C11.66 1.65 12.32 3.3 13 5 C8.05 5 3.1 5 -2 5 C-1.34 3.35 -0.68 1.7 0 0 Z " fill="#ADAD7C" transform="translate(8,22)"/>
<path d="M0 0 C5.47169811 6.60377358 5.47169811 6.60377358 7 10 C6.1875 12.8125 6.1875 12.8125 5 15 C1.66159501 12.29748168 0.37823313 8.99687609 -1 5 C-0.6875 2.0625 -0.6875 2.0625 0 0 Z " fill="#ADA672" transform="translate(20,11)"/>
<path d="M0 0 C0.66 0.66 1.32 1.32 2 2 C-1.3 2 -4.6 2 -8 2 C-8.309375 2.94875 -8.61875 3.8975 -8.9375 4.875 C-10 8 -10 8 -11 10 C-11.66 10 -12.32 10 -13 10 C-13.33 8.02 -13.66 6.04 -14 4 C-9.77777553 -0.35842526 -5.82168687 -0.98362489 0 0 Z " fill="#ED2323" transform="translate(15,16)"/>
<path d="M0 0 C0.66 0 1.32 0 2 0 C3.76462683 3.08809695 4 4.23312136 4 8 C1.36 8 -1.28 8 -4 8 C-3.01 7.34 -2.02 6.68 -1 6 C-0.83328148 3.4582293 -0.83328148 3.4582293 -1 1 C-0.67 0.67 -0.34 0.34 0 0 Z " fill="#ACAB7C" transform="translate(13,0)"/>
<path d="M0 0 C1.32 0 2.64 0 4 0 C3.67 1.98 3.34 3.96 3 6 C2.34 6 1.68 6 1 6 C0.67 4.02 0.34 2.04 0 0 Z " fill="#F16531" transform="translate(1,20)"/>
</svg>
